<?xml version="1.0" encoding="UTF-8"?>
<!DOCTYPE svg PUBLIC "-//W3C//DTD SVG 1.1//EN" "http://www.w3.org/Graphics/SVG/1.1/DTD/svg11.dtd">
<!-- Creator: CorelDRAW 2020 (64-Bit) -->
<svg xmlns="http://www.w3.org/2000/svg" xml:space="preserve" width="3508px" height="2480px" version="1.1" style="shape-rendering:geometricPrecision; text-rendering:geometricPrecision; image-rendering:optimizeQuality; fill-rule:evenodd; clip-rule:evenodd"
viewBox="0 0 3508 2480.4"
 xmlns:xlink="http://www.w3.org/1999/xlink"
 xmlns:xodm="http://www.corel.com/coreldraw/odm/2003">
 <defs>
  <style type="text/css">
   <![CDATA[
    .fil0 {fill:white}
    .fil3 {fill:#131313;fill-rule:nonzero}
    .fil13 {fill:#181A19;fill-rule:nonzero}
    .fil2 {fill:#272722;fill-rule:nonzero}
    .fil12 {fill:#3E403A;fill-rule:nonzero}
    .fil10 {fill:#414847;fill-rule:nonzero}
    .fil5 {fill:#47443E;fill-rule:nonzero}
    .fil4 {fill:#4D5648;fill-rule:nonzero}
    .fil11 {fill:#577379;fill-rule:nonzero}
    .fil7 {fill:#738F8C;fill-rule:nonzero}
    .fil8 {fill:#789186;fill-rule:nonzero}
    .fil9 {fill:#8CBABB;fill-rule:nonzero}
    .fil6 {fill:#93A47C;fill-rule:nonzero}
    .fil1 {fill:white;fill-rule:nonzero}
   ]]>
  </style>
 </defs>
 <g id="Слой_x0020_1">
  <metadata id="CorelCorpID_0Corel-Layer"/>
  <g id="route.svg">
   <path class="fil0" d="M1797.87 582.81c0,0.32 -0.22,0.58 -0.5,0.58 -7.77,0 -11.92,2 -18.54,5.2l-1.6 0.77c-0.93,0.44 -1.97,0.17 -3.02,-0.46 -1.07,-0.63 -2.22,-1.68 -3.43,-3 -2.42,-2.63 -5.12,-6.43 -7.76,-10.41 -1.78,-2.66 -3.53,-5.43 -5.15,-7.99 -0.8,-1.26 -1.57,-2.47 -2.29,-3.59 -0.95,-1.49 -1.94,-2.99 -2.95,-4.43 -0.86,-1.22 -1.55,-2.08 -2.03,-2.51 -12.98,-11.56 -31.12,-2.15 -34.23,14.13 -0.76,4 -1.59,7.02 -2.49,9.22 -0.89,2.21 -1.89,3.66 -3,4.49 -2.27,1.68 -4.8,0.58 -7.37,-1.03 -0.79,-0.49 -1.59,-1.02 -2.35,-1.54 -1.97,-1.34 -4.05,-2.75 -6.33,-3.68 -3.16,-1.3 -6.64,-1.62 -10.51,0.64 -1.19,0.69 -2.86,2.34 -4.73,4.48 -1.95,2.3 -3.92,4.72 -5.72,7.15 -1.61,2.15 -3.21,4.39 -4.77,6.55l0 0c-0.62,0.86 -1.13,1.57 -1.49,2.05 -0.15,0.18 -0.29,0.37 -0.44,0.55 -0.04,0.06 -0.1,0.12 -0.15,0.17l0 0c-0.05,0.05 -0.11,0.09 -0.17,0.12 -0.03,0.01 -0.18,0.07 -0.36,0 -0.24,-0.11 -0.31,-0.35 -0.32,-0.48 -0.62,-5.77 -3.41,-12 -7.32,-16.54 -3.92,-4.55 -8.89,-7.34 -13.89,-6.44 -8.09,1.45 -12.76,7.13 -16.66,13.97 -1.24,2.19 -2.39,4.46 -3.55,6.76 -0.67,1.31 -1.33,2.63 -2.02,3.94 -1.88,3.57 -3.89,7.02 -6.38,9.92 -0.26,0.33 -0.62,0.57 -1.03,0.67 -0.1,0.02 -0.21,0.03 -0.32,0.03 -0.26,0 -0.51,-0.06 -0.74,-0.18 -0.64,-0.3 -1.24,-0.94 -1.77,-1.59 -0.27,-0.33 -0.54,-0.69 -0.8,-1.03l0 0c-0.24,-0.33 -0.5,-0.66 -0.75,-0.97 -0.21,-0.27 -0.44,-0.52 -0.69,-0.75 -0.15,-0.15 -0.33,-0.27 -0.52,-0.35 -1.88,-0.63 -4.4,-0.77 -6.96,-0.61 -2.36,0.15 -4.71,0.55 -6.99,1.18 -3.04,0.88 -6.9,3.21 -11.21,6.18 -2.34,1.61 -4.77,3.38 -7.26,5.19 -2.12,1.54 -4.26,3.1 -6.43,4.62 -4.69,3.29 -9.39,6.33 -13.68,8.22 -4.27,1.88 -8.24,2.68 -11.41,1.32 -2.42,-1.04 -4.56,-2.15 -6.58,-3.23 -0.35,-0.18 -0.7,-0.37 -1.05,-0.56 -1.56,-0.85 -3.18,-1.68 -4.78,-2.46 -3.84,-1.81 -7.87,-3.1 -13.4,-3.1 -2.54,0 -3.98,0.63 -4.93,1.41 -0.45,0.38 -0.86,0.83 -1.2,1.31 -0.14,0.21 -0.29,0.41 -0.43,0.62l-0.07 0.09c-0.16,0.24 -0.34,0.48 -0.51,0.71 -0.36,0.46 -0.76,0.9 -1.3,1.21 -0.56,0.32 -1.19,0.48 -1.83,0.48 -0.05,0 -0.09,0 -0.14,0 -1.57,-0.02 -3.79,-0.73 -7.22,-2.51 -5.11,-2.64 -9.71,-6.88 -14.25,-11.29l-1.59 -1.54c-4.02,-3.92 -8.05,-7.84 -12.45,-10.87 -1.44,-0.99 -3.98,-3.15 -7.2,-5.87 -1.12,-0.96 -2.32,-1.98 -3.59,-3.04 -4.91,-4.13 -10.82,-8.96 -16.73,-13.08 -5.91,-4.13 -11.79,-7.51 -16.66,-8.81 -2.43,-0.64 -4.56,-0.75 -6.3,-0.21 -1.73,0.53 -3.09,1.71 -4.01,3.73 -2.76,6.07 -2.56,12.75 -2.36,19.58l0.04 1.6c0.2,7.31 0.13,14.73 -4.18,21.17 -5.99,8.98 -10.22,20.09 -10.22,31.77 0,2.97 -0.74,11.77 -1.86,19.45 -0.56,3.84 -1.22,7.44 -1.93,9.9 -0.35,1.22 -0.74,2.23 -1.17,2.85 -0.22,0.3 -0.49,0.58 -0.82,0.68 -0.38,0.11 -0.73,-0.03 -1.01,-0.3 -2.73,-2.65 -7.27,-3.96 -12.76,-4.61 -4.7,-0.55 -10.01,-0.61 -15.31,-0.67l-2.61 -0.04c-6.14,-0.09 -12.14,-0.28 -16.96,-1.38 -4.79,-1.09 -8.61,-3.12 -10.11,-7.04 -0.93,-2.44 -1.31,-4.8 -1.58,-6.94l-0.18 -1.44c-0.18,-1.57 -0.34,-2.98 -0.68,-4.24 -0.42,-1.58 -1.11,-2.86 -2.43,-3.81 -1.34,-0.97 -3.4,-1.63 -6.64,-1.83 -4.57,-0.28 -7.68,-1.23 -9.78,-2.83 -2.14,-1.63 -3.19,-3.9 -3.74,-6.63 -0.48,-2.35 -0.6,-5.11 -0.74,-8.14l-0.06 -1.34c-0.17,-3.58 -0.42,-7.58 -1.31,-11.94 -0.16,-0.96 -0.32,-1.96 -0.44,-2.93l-0.16 -1.06c-0.22,-1.7 -0.52,-3.4 -0.87,-5.08 -0.37,-1.65 -0.82,-3.08 -1.36,-3.97 -0.27,-0.44 -0.54,-0.71 -0.8,-0.84 -0.24,-0.13 -0.51,-0.15 -0.86,0.01 -8.33,3.77 -16.89,6.41 -25.48,9.06l-0.55 0.16c-6.79,2.1 -11.45,3.23 -14.74,3.4 -3.3,0.17 -5.33,-0.64 -6.72,-2.54 -0.68,-0.93 -1.19,-2.08 -1.63,-3.42 -0.44,-1.35 -0.83,-2.91 -1.26,-4.67l-0.06 -0.22c-0.86,-3.5 -1.92,-7.82 -3.93,-12.97 -1.74,-4.45 -4.15,-7.51 -6.91,-10.24 -1.23,-1.23 -2.52,-2.38 -3.86,-3.57l-0.48 -0.43c-1.51,-1.35 -3.06,-2.76 -4.6,-4.35 -1.12,-1.16 -2.88,-2.37 -4.96,-3.66 -0.91,-0.56 -1.9,-1.15 -2.9,-1.75 -1.2,-0.73 -2.5,-1.52 -3.71,-2.27 -2.21,-1.39 -4.33,-2.86 -5.94,-4.43 -1.6,-1.54 -2.79,-3.26 -2.98,-5.17 -0.39,-3.85 -1.7,-5.62 -3.37,-6.26 -1.75,-0.67 -4.07,-0.18 -6.59,0.99 -5.02,2.33 -10.41,7.15 -12.63,9.22 -2.71,2.53 -5.39,4.99 -8.04,7.41 -19.36,17.78 -36.81,33.8 -49.61,59.87l-0.1 0.2c-1.17,2.39 -5.24,10.7 -9.19,16.05 -1.02,1.38 -2.04,2.58 -3.02,3.44 -0.96,0.85 -1.95,1.42 -2.89,1.4 -1,-0.02 -1.8,-0.72 -2.34,-2.02 -0.54,-1.27 -0.87,-3.17 -0.98,-5.8 -0.34,-7.91 -2.84,-16.35 -6.06,-24.55 -2.52,-6.41 -5.47,-12.63 -8.16,-18.3 -0.75,-1.59 -1.48,-3.13 -2.18,-4.62 -13.13,-28.15 -27.68,-57.14 -50.51,-75.7 -1.66,-1.35 -3.15,-2.52 -4.49,-3.59 -3.58,-2.83 -6.17,-4.89 -8.51,-7.39 -3.24,-3.46 -5.99,-7.75 -10.22,-16.07l-0.95 -1.85c-4.32,-8.52 -8.93,-17.62 -14.62,-23.89 -3.05,-3.36 -6.38,-5.88 -10.11,-7.07 -3.73,-1.19 -7.89,-1.06 -12.61,0.94 -1.65,0.7 -3.41,2.11 -5.2,3.98 -1.79,1.87 -3.58,4.16 -5.29,6.58 -2.79,3.96 -5.33,8.21 -7.26,11.44 -0.44,0.73 -0.85,1.41 -1.22,2.02 -13.79,22.76 -31.47,40.51 -49.36,58.46 -2.89,2.89 -5.77,5.79 -8.65,8.71 -0.2,0.22 -0.52,0.19 -0.7,-0.05 -0.09,-0.1 -0.13,-0.24 -0.13,-0.37 0,-0.17 0.06,-0.32 0.17,-0.44 2.88,-2.94 5.78,-5.84 8.66,-8.74 17.89,-17.95 35.47,-35.6 49.19,-58.23 0.37,-0.6 0.77,-1.28 1.2,-2 1.93,-3.23 4.51,-7.53 7.32,-11.52 1.73,-2.45 3.56,-4.8 5.39,-6.71 1.84,-1.92 3.71,-3.45 5.53,-4.22 4.9,-2.07 9.27,-2.22 13.22,-0.96 3.93,1.26 7.4,3.9 10.53,7.35 5.79,6.39 10.48,15.63 14.78,24.1l0.96 1.89c4.22,8.29 6.91,12.46 10.03,15.81 2.29,2.43 4.81,4.42 8.35,7.24 1.35,1.07 2.86,2.26 4.55,3.63 23.05,18.74 37.7,47.98 50.82,76.1 0.69,1.48 1.42,3.02 2.17,4.6 2.69,5.68 5.67,11.95 8.2,18.4 3.25,8.25 5.8,16.85 6.15,24.97 0.11,2.58 0.43,4.29 0.88,5.35 0.43,1.03 0.94,1.35 1.47,1.37 0.59,0.01 1.35,-0.36 2.26,-1.16 0.9,-0.79 1.87,-1.92 2.87,-3.27 3.88,-5.27 7.91,-13.5 9.09,-15.89l0.09 -0.18c12.89,-26.29 30.51,-42.45 49.87,-60.22 2.64,-2.43 5.31,-4.88 8.02,-7.39 2.21,-2.07 7.71,-7 12.88,-9.4 2.57,-1.2 5.18,-1.82 7.27,-1.01 2.17,0.82 3.64,3.1 4.05,7.22 0.15,1.45 1.09,2.92 2.64,4.42 1.53,1.49 3.57,2.91 5.77,4.3 1.22,0.77 2.46,1.51 3.67,2.23 1,0.59 1.98,1.19 2.94,1.78 2.07,1.28 3.93,2.55 5.15,3.81 1.46,1.47 2.99,2.93 4.55,4.29l0.48 0.43c1.34,1.19 2.65,2.37 3.91,3.61 2.82,2.8 5.34,5.99 7.16,10.65 2.05,5.23 3.12,9.62 3.98,13.11l0.06 0.24c0.43,1.77 0.81,3.29 1.23,4.57 0.42,1.28 0.88,2.3 1.46,3.08 1.11,1.52 2.77,2.29 5.92,2.13 3.17,-0.16 7.73,-1.26 14.52,-3.35l0.53 -0.17c8.61,-2.65 17.12,-5.27 25.4,-9.02 0.25,-0.12 0.53,-0.19 0.81,-0.19 0.28,0 0.56,0.07 0.81,0.2 0.48,0.24 0.89,0.7 1.21,1.24 0.66,1.07 1.14,2.67 1.52,4.35 0.37,1.69 0.66,3.55 0.89,5.18l0.16 1.11c0.16,1.16 0.3,2.15 0.43,2.8 0.9,4.47 1.16,8.55 1.33,12.15l0.06 1.35c0.14,3.05 0.25,5.68 0.71,7.92 0.52,2.53 1.45,4.5 3.31,5.92 1.89,1.45 4.78,2.37 9.3,2.65 3.3,0.2 5.55,0.88 7.11,2 1.57,1.13 2.38,2.67 2.86,4.46 0.36,1.36 0.54,2.9 0.72,4.49 0.06,0.45 0.11,0.9 0.16,1.36 0.27,2.11 0.64,4.34 1.52,6.63 1.28,3.36 4.63,5.29 9.38,6.37 4.72,1.08 10.63,1.28 16.78,1.37l2.6 0.03c5.3,0.06 10.66,0.12 15.41,0.68 5.5,0.65 10.32,1.98 13.3,4.87 0.09,0.09 0.12,0.07 0.12,0.07 0.04,-0.02 0.14,-0.07 0.29,-0.29 0.31,-0.44 0.65,-1.28 1,-2.48 0.69,-2.37 1.33,-5.89 1.89,-9.72 1.12,-7.66 1.85,-16.38 1.85,-19.26 0,-12.01 4.33,-23.36 10.43,-32.48 4.07,-6.09 4.17,-13.1 3.97,-20.43l-0.04 -1.65c-0.21,-6.76 -0.41,-13.75 2.48,-20.11 1.05,-2.31 2.65,-3.69 4.63,-4.31 1.96,-0.61 4.27,-0.46 6.79,0.2 5.02,1.34 11.01,4.81 16.95,8.95 5.95,4.15 11.88,9 16.8,13.13 1.3,1.09 2.51,2.13 3.64,3.09 3.2,2.7 5.68,4.81 7.07,5.77 4.48,3.07 8.57,7.06 12.58,10.98l1.59 1.54c4.54,4.4 9.04,8.54 14.02,11.12 3.41,1.76 5.47,2.39 6.82,2.4 0.04,0.01 0.08,0.01 0.13,0.01 0.48,0 0.96,-0.13 1.38,-0.36 0.38,-0.22 0.69,-0.54 1.01,-0.95 0.15,-0.2 0.31,-0.42 0.47,-0.66 0.16,-0.23 0.33,-0.48 0.52,-0.73 0.37,-0.51 0.81,-1.04 1.39,-1.51 1.16,-0.96 2.81,-1.63 5.5,-1.63 5.69,0 9.84,1.34 13.78,3.19 1.62,0.76 3.2,1.61 4.83,2.49l1.04 0.55c2.01,1.08 4.12,2.17 6.51,3.2 2.81,1.21 6.49,0.54 10.71,-1.32 4.2,-1.85 8.83,-4.84 13.51,-8.12 2.13,-1.49 4.27,-3.06 6.39,-4.6 2.51,-1.82 4.98,-3.61 7.31,-5.22 4.31,-2.97 8.28,-5.38 11.48,-6.31 2.34,-0.66 4.75,-1.06 7.17,-1.21 2.6,-0.17 5.25,-0.03 7.29,0.65 0.33,0.12 0.62,0.31 0.87,0.55 0.27,0.25 0.54,0.55 0.79,0.86 0.26,0.32 0.52,0.66 0.77,1l0.01 0.01c0.26,0.35 0.52,0.69 0.77,1 0.53,0.64 1,1.12 1.42,1.31 0.2,0.1 0.36,0.12 0.51,0.09 0.14,-0.03 0.31,-0.13 0.5,-0.35 2.4,-2.8 4.37,-6.16 6.24,-9.71 0.66,-1.27 1.32,-2.58 1.98,-3.88 1.17,-2.32 2.35,-4.65 3.61,-6.86 3.96,-6.95 8.84,-12.95 17.33,-14.47 5.43,-0.98 10.71,2.06 14.76,6.76 3.78,4.4 6.56,10.32 7.44,16.02l1.31 -1.8 0.01 -0.01c1.24,-1.73 2.94,-4.09 4.8,-6.57 1.83,-2.45 3.79,-4.88 5.78,-7.22 1.86,-2.13 3.63,-3.9 4.97,-4.69 4.18,-2.42 7.95,-2.07 11.3,-0.7 2.38,0.98 4.6,2.48 6.59,3.84 0.78,0.52 1.52,1.03 2.23,1.47 2.6,1.63 4.62,2.35 6.36,1.06 0.89,-0.66 1.78,-1.89 2.63,-3.99 0.86,-2.1 1.66,-5.02 2.42,-8.98 3.25,-17.06 22.21,-26.91 35.81,-14.81 0.58,0.53 1.34,1.48 2.2,2.69 0.87,1.23 1.88,2.76 2.98,4.48 0.73,1.14 1.5,2.35 2.3,3.61 1.62,2.55 3.36,5.3 5.13,7.96 2.63,3.97 5.3,7.7 7.65,10.27 1.18,1.29 2.26,2.25 3.2,2.82 0.95,0.56 1.66,0.66 2.18,0.41l1.62 -0.78c6.62,-3.19 10.93,-5.27 18.91,-5.27 0.27,0 0.5,0.26 0.5,0.58l-0.01 0z"/>
   <path class="fil1" d="M966.62 430.98l2.79 0c1.69,0 2.46,-0.98 2.46,-2.29 0,-1.31 -0.79,-2.05 -1.51,-2.09l0 -0.09c0.66,-0.19 1.22,-0.72 1.22,-1.78 0,-1.26 -0.74,-2.23 -2.3,-2.23l-2.66 0 0 8.48zm1.1 -1.1l0 -2.72 1.62 0c0.88,0 1.43,0.67 1.43,1.47 0,0.72 -0.41,1.25 -1.47,1.25l-1.58 0zm0 -3.71l0 -2.58 1.5 0c0.87,0 1.28,0.53 1.28,1.24 0.01,0.02 0.01,0.04 0.01,0.06 0,0.71 -0.57,1.28 -1.28,1.28 -0.01,0 -0.03,0 -0.04,0l-1.47 0zm6.95 4.81l4.61 0 0 -1.1 -3.51 0 0 -2.6 3.23 0 0 -1.1 -3.23 0 0 -2.58 3.47 0 0 -1.1 -4.57 0 0 8.48zm6.98 0l0.32 0c1.65,0 2.05,-1.44 2.15,-4.16l0.11 -3.24 2.48 0 0 7.4 1.09 0 0 -8.48 -4.61 0 -0.12 3.98c-0.08,2.45 -0.33,3.35 -1.2,3.38l-0.22 0.01 0 1.1 0 0.01zm9.25 -8.48l0 8.48 1.01 0 3.7 -6.22 0.07 0 0 6.21 1.1 0 0 -8.47 -1.02 0 -3.7 6.22 -0.07 0 0 -6.22 -1.09 0zm13.29 8.48l1.34 0 -3 -4.65 3.02 -3.83 -1.36 0 -2.83 3.58 -0.38 0 0 -3.58 -1.1 0 0 8.48 1.1 0 0 -3.8 0.75 0 2.47 3.8 -0.01 0zm3.96 -8.48l0 8.48 1.01 0 3.7 -6.22 0.06 0 0 6.21 1.1 0 0 -8.47 -1.01 0 -3.71 6.22 -0.07 0 0 -6.22 -1.08 0zm8.98 0l0 8.48 1 0 3.7 -6.22 0.07 0 0 6.21 1.1 0 0 -8.47 -1.01 0 -3.71 6.22 -0.06 0 0 -6.22 -1.09 0zm3.63 -2.15c0,0.42 -0.2,0.78 -0.7,0.78 -0.5,0 -0.69,-0.37 -0.69,-0.78l-0.87 0c0,0.93 0.61,1.57 1.56,1.57 0.97,0 1.57,-0.64 1.57,-1.57l-0.87 0zm-58.69 24.61l1.1 0 0 -3.69 3.62 0 0 3.69 1.11 0 0 -8.48 -1.11 0 0 3.69 -3.63 0 0 -3.69 -1.09 0 0 8.48zm15.25 -4.24c0,-2.71 -1.39,-4.35 -3.28,-4.35 -1.89,0 -3.28,1.64 -3.28,4.35 0,2.71 1.39,4.36 3.28,4.36 1.89,0 3.28,-1.65 3.28,-4.36zm-1.09 0c0,2.07 -0.94,3.19 -2.19,3.19 -1.25,0 -2.19,-1.12 -2.19,-3.19 0,-2.06 0.94,-3.18 2.19,-3.18 1.25,0 2.19,1.12 2.19,3.18zm3.96 4.24l2.79 0c1.7,0 2.46,-0.98 2.46,-2.28 0,-1.31 -0.79,-2.05 -1.51,-2.1l0 -0.08c0.67,-0.2 1.23,-0.73 1.23,-1.79 0,-1.25 -0.75,-2.23 -2.3,-2.23l-2.67 0 0 8.48zm1.1 -1.1l0 -2.71 1.63 0c0.88,0 1.43,0.66 1.43,1.47 0,0.71 -0.42,1.25 -1.47,1.25l-1.59 -0.01zm0 -3.71l0 -2.58 1.5 0c0.87,0 1.29,0.54 1.29,1.24 0,0.03 0,0.05 0,0.07 0,0.7 -0.57,1.27 -1.27,1.27 -0.02,0 -0.03,0 -0.05,0l-1.47 0zm11.49 -3.67l-4.54 0 0 8.48 1.1 0 0 -7.38 3.44 0 0 -1.1 0 0zm8.76 4.24c0,-2.71 -1.39,-4.35 -3.27,-4.35 -1.9,0 -3.29,1.64 -3.29,4.35 0,2.71 1.4,4.36 3.29,4.36 1.88,0 3.27,-1.65 3.27,-4.36zm-1.09 0c0,2.07 -0.93,3.19 -2.18,3.19 -1.26,0 -2.2,-1.12 -2.2,-3.19 0,-2.06 0.94,-3.18 2.2,-3.18 1.25,0 2.18,1.12 2.18,3.18zm3.96 4.24l1.1 0 0 -2.98 1.5 0c1.69,0 2.52,-1.19 2.52,-2.75 0,-1.56 -0.83,-2.75 -2.52,-2.75l-2.6 0 0 8.48zm1.1 -4.06l0 -3.32 1.38 0c1.09,0 1.53,0.69 1.53,1.65 0,0.96 -0.44,1.67 -1.51,1.67l-1.4 0zm13.13 -0.18c0,-2.71 -1.39,-4.35 -3.28,-4.35 -1.89,0 -3.28,1.64 -3.28,4.35 0,2.71 1.4,4.36 3.28,4.36 1.89,0 3.28,-1.65 3.28,-4.36zm-1.09 0c0,2.07 -0.93,3.19 -2.19,3.19 -1.25,0 -2.18,-1.12 -2.18,-3.19 0,-2.06 0.93,-3.18 2.18,-3.18 1.26,0 2.19,1.12 2.19,3.18zm3.41 6.29l1.05 0 0 -2.05 4.89 0 0 2.04 1.05 0 0 -3.12 -0.82 0 0 -7.4 -4.49 0 -0.17 3.59c-0.11,2.35 -0.54,3.33 -1.03,3.81l-0.48 0 0 3.13 0 0zm1.78 -3.13c0.41,-0.78 0.69,-2.02 0.78,-3.82l0.12 -2.48 2.44 0 0 6.3 -3.34 0zm-124.4 121.97l-5.61 0 0 8.47 1.09 0 0 -7.38 3.43 0 0 7.38 1.09 0 0 -8.47 0 0zm9.23 2.75c-0.25,-1.81 -1.47,-2.87 -3,-2.87 -1.89,0 -3.28,1.64 -3.28,4.35 0,2.72 1.39,4.36 3.28,4.36 1.6,0 2.77,-1.17 3,-2.85l-1.11 0c-0.19,1.09 -0.97,1.68 -1.89,1.68 -1.25,0 -2.19,-1.11 -2.19,-3.18 0,-2.06 0.94,-3.19 2.2,-3.19 0.92,0 1.7,0.61 1.89,1.7l1.1 0zm7.13 5.72l1.34 0 -3 -4.64 3.02 -3.83 -1.36 0 -2.84 3.58 -0.37 0 0 -3.58 -1.1 0 0 8.47 1.1 0 0 -3.8 0.75 0 2.46 3.8 0 0zm9.92 -4.24c0,-2.71 -1.4,-4.35 -3.28,-4.35 -1.89,0 -3.28,1.64 -3.28,4.35 0,2.71 1.39,4.36 3.28,4.36 1.88,0 3.28,-1.64 3.28,-4.36zm-1.09 0c0,2.07 -0.94,3.19 -2.19,3.19 -1.26,0 -2.19,-1.12 -2.19,-3.19 0,-2.06 0.93,-3.18 2.19,-3.18 1.25,0 2.19,1.12 2.19,3.18zm3.96 4.24l2.79 0c1.69,0 2.45,-0.98 2.45,-2.28 0,-1.31 -0.79,-2.05 -1.51,-2.1l0 -0.08c0.67,-0.2 1.23,-0.73 1.23,-1.79 0,-1.25 -0.75,-2.22 -2.3,-2.22l-2.66 0 0 8.47zm1.1 -1.09l0 -2.72 1.62 0c0.88,0 1.43,0.66 1.43,1.47 0,0.71 -0.41,1.25 -1.47,1.25l-1.58 0zm0 -3.72l0 -2.58 1.5 0c0.87,0 1.28,0.54 1.28,1.24 0,0.02 0,0.05 0,0.07 0,0.7 -0.57,1.27 -1.27,1.27 -0.01,0 -0.03,0 -0.04,0l-1.47 0zm127.52 28.9l2.26 0 0 7.38 1.1 0 0 -7.38 2.27 0 0 -1.1 -5.63 0 0 1.1zm8.37 7.38l2.8 0c1.69,0 2.45,-0.98 2.45,-2.28 0,-1.31 -0.79,-2.06 -1.51,-2.1l0 -0.08c0.67,-0.2 1.23,-0.73 1.23,-1.79 0,-1.25 -0.75,-2.23 -2.3,-2.23l-2.67 0 0 8.48zm1.1 -1.1l0 -2.71 1.63 0c0.88,0 1.43,0.66 1.43,1.46 0,0.72 -0.42,1.25 -1.47,1.25l-1.59 0zm0 -3.71l0 -2.58 1.5 0c0.87,0 1.29,0.53 1.29,1.24 0,0.02 0,0.04 0,0.06 0,0.71 -0.57,1.28 -1.27,1.28 -0.01,0 -0.03,0 -0.04,0l-1.48 0zm6.96 4.81l4.6 0 0 -1.1 -3.5 0 0 -2.6 3.22 0 0 -1.1 -3.22 0 0 -2.58 3.46 0 0 -1.1 -4.56 0 0 8.48zm7.53 0l1.1 0 0 -2.98 1.49 0c1.69,0 2.53,-1.19 2.53,-2.76 0,-1.55 -0.84,-2.74 -2.53,-2.74l-2.59 0 0 8.48zm1.1 -4.07l0 -3.31 1.38 0c1.08,0 1.53,0.69 1.53,1.64 0,0.96 -0.45,1.67 -1.52,1.67l-1.39 0zm7.91 -0.99l0 -3.42 -1.1 0 0 8.48 2.73 0c1.62,0 2.55,-1.05 2.54,-2.57 0.01,-1.52 -0.92,-2.49 -2.54,-2.49l-1.63 0zm0 1.07l1.63 0c0.94,0 1.46,0.63 1.46,1.4 0,0.79 -0.52,1.51 -1.46,1.51l-1.63 0 0 -2.9 0 -0.01zm65.29 29.63l0 -8.48 -2.59 0c-1.69,0 -2.52,1.1 -2.52,2.66 0,1.13 0.44,2 1.33,2.39l-1.61 3.43 1.25 0 1.48 -3.21 1.57 0 0 3.21 1.09 0zm-1.09 -4.31l-1.4 0c-1.07,0 -1.52,-0.55 -1.52,-1.51 0,-0.96 0.45,-1.56 1.54,-1.56l1.38 0 0 3.07zm4.19 4.31l1.1 0 0 -2.98 1.49 -0.01c1.69,0 2.53,-1.18 2.53,-2.74 0,-1.57 -0.83,-2.75 -2.53,-2.75l-2.59 0 0 8.48zm1.1 -4.07l0 -3.31 1.38 0c1.09,0 1.53,0.68 1.53,1.65 0,0.96 -0.44,1.66 -1.52,1.66l-1.39 0zm13.13 -0.17c0,-2.71 -1.39,-4.35 -3.28,-4.35 -1.89,0 -3.28,1.64 -3.28,4.35 0,2.7 1.39,4.35 3.28,4.35 1.89,0 3.28,-1.64 3.28,-4.35zm-1.09 0c0,2.06 -0.94,3.19 -2.19,3.19 -1.25,0 -2.19,-1.13 -2.19,-3.19 0,-2.07 0.94,-3.19 2.19,-3.19 1.25,0 2.19,1.12 2.19,3.19zm10.01 -1.48c-0.25,-1.82 -1.47,-2.87 -3.01,-2.87 -1.89,0 -3.27,1.64 -3.27,4.35 0,2.71 1.38,4.35 3.27,4.35 1.6,0 2.77,-1.17 3.01,-2.84l-1.11 0c-0.19,1.08 -0.97,1.68 -1.89,1.68 -1.25,0 -2.2,-1.12 -2.2,-3.19 0,-2.06 0.94,-3.19 2.2,-3.19 0.92,0 1.7,0.61 1.89,1.71l1.11 0zm2.26 5.72l0.31 0c1.66,0 2.06,-1.43 2.15,-4.16l0.12 -3.23 2.48 0 0 7.39 1.09 0 0 -8.48 -4.61 0 -0.12 3.98c-0.08,2.45 -0.34,3.35 -1.21,3.38l-0.21 0.01 0 1.1 0 0.01zm9.86 0l0.67 -2.25 2.85 0 0.66 2.25 1.17 0 -2.62 -8.48 -1.27 0 -2.62 8.48 1.16 0zm0.99 -3.32l1.07 -3.62 0.06 0 1.08 3.62 -2.21 0zm6.91 3.32l2.79 0c1.69,0 2.46,-0.99 2.46,-2.28 0,-1.32 -0.8,-2.06 -1.52,-2.1l0 -0.08c0.67,-0.2 1.23,-0.73 1.23,-1.79 0,-1.25 -0.74,-2.23 -2.3,-2.23l-2.66 0 0 8.48zm1.1 -1.1l0 -2.71 1.62 0c0.88,0 1.43,0.66 1.43,1.47 0,0.71 -0.41,1.24 -1.47,1.24l-1.58 0zm0 -3.71l0 -2.58 1.5 0c0.87,0 1.28,0.53 1.28,1.24 0.01,0.02 0.01,0.04 0.01,0.07 0,0.7 -0.57,1.27 -1.28,1.27 -0.01,0 -0.03,0 -0.04,0l-1.47 0zm6.4 4.81l0.31 0c1.66,0 2.06,-1.43 2.15,-4.16l0.12 -3.23 2.48 0 0 7.39 1.09 0 0 -8.48 -4.61 0 -0.12 3.98c-0.08,2.45 -0.34,3.35 -1.21,3.38l-0.21 0.01 0 1.1 0 0.01zm10.35 -5.06l0 -3.42 -1.1 0 0 8.48 2.73 0c1.62,0 2.55,-1.05 2.55,-2.57 0,-1.52 -0.93,-2.49 -2.55,-2.49l-1.63 0zm0 1.08l1.63 0c0.94,0 1.46,0.62 1.46,1.39 0,0.79 -0.52,1.51 -1.46,1.51l-1.63 0 0 -2.9zm14.11 -74.43l0 8.48 1.05 0 0 -6.14 0.07 0 2.14 6.13 0.87 0 2.15 -6.12 0.07 0 0 6.13 1.04 0 0 -8.48 -1.33 0 -2.32 6.6 -0.09 0 -2.32 -6.6 -1.33 0zm11.29 8.48l0.67 -2.24 2.84 0 0.67 2.24 1.16 0 -2.62 -8.48 -1.27 0 -2.62 8.48 1.17 0zm0.99 -3.32l1.07 -3.61 0.06 0 1.07 3.61 -2.2 0 0 0zm6.9 3.32l1.1 0 0 -3.69 3.63 0 0 3.69 1.1 0 0 -8.48 -1.1 0 0 3.69 -3.63 0 0 -3.69 -1.1 0 0 8.48zm8.58 -7.37l2.26 0 0 7.37 1.1 0 0 -7.37 2.27 0 0 -1.11 -5.63 0 0 1.11zm8.89 7.49l0.5 0c1.14,0 1.52,-0.74 1.83,-1.59l2.52 -7.01 -1.15 0 -1.7 4.91 -1.91 -4.91 -1.16 0 2.55 6.37 -0.1 0.3c-0.15,0.44 -0.39,0.8 -0.94,0.8l-0.44 0 0 1.13zm7.39 -0.12l1.1 0 0 -2.98 1.49 0c1.69,0 2.53,-1.19 2.53,-2.75 0,-1.56 -0.83,-2.75 -2.52,-2.75l-2.6 0 0 8.48zm1.1 -4.06l0 -3.32 1.38 0c1.09,0 1.53,0.69 1.53,1.65 0,0.96 -0.44,1.67 -1.52,1.67l-1.39 0zm13.13 -0.18c0,-2.71 -1.4,-4.35 -3.28,-4.35 -1.89,0 -3.28,1.64 -3.28,4.35 0,2.71 1.39,4.36 3.28,4.36 1.88,0 3.28,-1.64 3.28,-4.36zm-1.09 0c0,2.07 -0.93,3.19 -2.19,3.19 -1.25,0 -2.19,-1.12 -2.19,-3.19 0,-2.06 0.94,-3.18 2.19,-3.18 1.26,0 2.19,1.12 2.19,3.18zm3.96 4.24l2.79 0c1.69,0 2.46,-0.98 2.46,-2.28 0,-1.31 -0.79,-2.05 -1.51,-2.1l0 -0.08c0.66,-0.2 1.22,-0.73 1.22,-1.79 0,-1.25 -0.74,-2.23 -2.29,-2.23l-2.67 0 0 8.48zm1.1 -1.09l0 -2.72 1.62 0c0.89,0 1.44,0.66 1.44,1.47 0,0.71 -0.42,1.25 -1.48,1.25l-1.58 0zm0 -3.72l0 -2.58 1.5 0c0.87,0 1.29,0.54 1.29,1.24 0,0.02 0,0.04 0,0.07 0,0.7 -0.57,1.27 -1.28,1.27 -0.01,0 -0.02,0 -0.04,0l-1.47 0zm13.28 0.57c0,-2.71 -1.4,-4.35 -3.28,-4.35 -1.89,0 -3.28,1.64 -3.28,4.35 0,2.71 1.39,4.36 3.28,4.36 1.88,0 3.28,-1.64 3.28,-4.36zm-1.09 0c0,2.07 -0.94,3.19 -2.19,3.19 -1.26,0 -2.19,-1.12 -2.19,-3.19 0,-2.06 0.93,-3.18 2.19,-3.18 1.25,0 2.19,1.12 2.19,3.18zm-17.55 36.88l1.34 0 -3.01 -4.65 3.03 -3.83 -1.37 0 -2.83 3.58 -0.37 0 0 -3.58 -1.1 0 0 8.48 1.1 0 0 -3.8 0.75 0 2.46 3.8 0 0zm9.91 -4.24c0,-2.71 -1.39,-4.35 -3.27,-4.35 -1.89,0 -3.28,1.64 -3.28,4.35 0,2.71 1.39,4.35 3.28,4.35 1.88,0 3.27,-1.64 3.27,-4.35zm-1.08 0c0,2.06 -0.94,3.19 -2.19,3.19 -1.26,0 -2.19,-1.13 -2.19,-3.19 0,-2.07 0.93,-3.19 2.19,-3.19 1.25,0 2.19,1.12 2.19,3.19l0 0zm3.29 -3.14l2.27 0 0 7.38 1.1 0 0 -7.38 2.27 0 0 -1.1 -5.64 0 0 1.1zm8.39 7.38l4.6 0 0 -1.1 -3.51 0 0 -2.6 3.23 0 0 -1.1 -3.23 0 0 -2.58 3.47 0 0 -1.1 -4.56 0 0 8.48 0 0zm6.98 0l0.31 0c1.66,0 2.05,-1.44 2.15,-4.16l0.11 -3.23 2.49 0 0 7.39 1.08 0 0 -8.48 -4.6 0 -0.13 3.98c-0.08,2.46 -0.33,3.35 -1.2,3.38l-0.21 0.01 0 1.11 0 0zm10.35 -5.06l0 -3.42 -1.1 0 0 8.48 2.73 0c1.62,0 2.55,-1.05 2.54,-2.57 0.01,-1.52 -0.92,-2.49 -2.54,-2.49l-1.63 0zm0 1.08l1.63 0c0.94,0 1.46,0.62 1.46,1.39 0,0.79 -0.52,1.51 -1.46,1.51l-1.63 0 0 -2.9zm7.01 3.98l1.1 0 0 -3.7 3.63 0 0 3.7 1.1 0 0 -8.48 -1.1 0 0 3.69 -3.63 -0.01 0 -3.68 -1.1 0 0 8.48 0 0zm8.93 -8.48l0 8.48 1.01 0 3.7 -6.22 0.07 0 0 6.22 1.1 0 0 -8.48 -1.02 0 -3.7 6.22 -0.07 0 0 -6.22 -1.09 0zm9.13 0l0 2.8c0,1.89 0.98,2.63 2.57,2.63 0.7,0 1.31,-0.1 1.83,-0.27l0 3.32 1.09 0 0 -8.48 -1.09 0 0 4.07c-0.59,0.17 -1.21,0.27 -1.83,0.27 -0.95,0 -1.49,-0.37 -1.49,-1.54l0 -2.8 -1.08 0 0 0zm11.81 3.71l-3.23 0 0 1.07 3.23 0 0 -1.07zm5.46 -3.71l-1.02 0c-0.04,0.23 -0.6,1.3 -1.66,1.3l0 1.06c0.83,0 1.4,-0.39 1.52,-0.63l0.06 0 0 6.75 1.1 0 0 -8.48 0 0zm51.67 45.45l-4.54 0 0 8.48 1.1 0 0 -7.38 3.44 0 0 -1.1zm2.18 8.48l0.32 0c1.65,0 2.05,-1.44 2.15,-4.16l0.11 -3.24 2.49 0 0 7.4 1.08 0 0 -8.48 -4.6 0 -0.13 3.98c-0.08,2.45 -0.33,3.35 -1.2,3.38l-0.22 0.01 0 1.1 0 0.01zm9.87 0l0.66 -2.25 2.85 0 0.66 2.25 1.17 0 -2.62 -8.48 -1.27 0 -2.62 8.48 1.17 0zm0.99 -3.33l1.07 -3.61 0.05 0 1.08 3.62 -2.2 0 0 -0.01zm9.34 3.44c1.48,0 2.57,-1.03 2.57,-2.44 0,-1.07 -0.55,-1.84 -1.52,-2.02l0 -0.06c0.76,-0.23 1.26,-0.92 1.25,-1.88 0.01,-1.24 -0.87,-2.31 -2.27,-2.31 -1.34,0 -2.42,0.94 -2.45,2.32l1.06 0c0.03,-0.78 0.66,-1.25 1.37,-1.25 0.74,0 1.23,0.53 1.23,1.31 0,0.82 -0.56,1.36 -1.37,1.36l-0.62 0 0 1.04 0.62 0c1.01,0 1.59,0.6 1.59,1.45 0,0.82 -0.61,1.38 -1.47,1.38 -0.79,0 -1.4,-0.47 -1.45,-1.22l-1.11 0c0.04,1.38 1.1,2.32 2.57,2.32zm11.84 -4.35c0,-2.71 -1.39,-4.36 -3.28,-4.36 -1.89,0 -3.28,1.65 -3.28,4.36 0,2.7 1.39,4.35 3.28,4.35 1.89,0 3.28,-1.64 3.28,-4.35zm-1.09 0c0,2.06 -0.94,3.19 -2.19,3.19 -1.25,0 -2.19,-1.13 -2.19,-3.19 0,-2.07 0.94,-3.19 2.19,-3.19 1.25,0 2.19,1.12 2.19,3.19zm3.96 4.24l2.79 0c1.69,0 2.46,-0.99 2.46,-2.28 0,-1.31 -0.79,-2.06 -1.51,-2.1l0 -0.08c0.67,-0.2 1.22,-0.73 1.22,-1.79 0,-1.26 -0.74,-2.23 -2.29,-2.23l-2.67 0 0 8.48zm1.1 -1.1l0 -2.72 1.62 0c0.89,0 1.44,0.67 1.44,1.47 0,0.72 -0.42,1.25 -1.48,1.25l-1.58 0zm0 -3.71l0 -2.58 1.5 0c0.87,0 1.28,0.53 1.28,1.24 0,0.02 0.01,0.04 0.01,0.06 0,0.71 -0.57,1.28 -1.28,1.28 -0.01,0 -0.03,0 -0.04,-0.01l-1.47 0.01zm-34.96 -78.81l-5.62 0 0 8.47 1.1 0 0 -7.38 3.43 0 0 7.38 1.09 0 0 -8.47zm3.18 8.47l4.61 0 0 -1.1 -3.51 0 0 -2.59 3.23 0 0 -1.1 -3.23 0 0 -2.58 3.47 0 0 -1.1 -4.57 0 0 8.47zm7.54 0l1.09 0 0 -2.98 1.5 0c1.69,0 2.52,-1.19 2.52,-2.75 0,-1.56 -0.83,-2.74 -2.52,-2.74l-2.59 0 0 8.47zm1.09 -4.06l0 -3.32 1.38 0c1.09,0 1.53,0.69 1.53,1.65 0,0.96 -0.44,1.67 -1.51,1.67l-1.4 0zm6.81 -4.41l0 8.47 1.04 0 0 -6.13 0.07 0 2.15 6.12 0.87 0 2.14 -6.12 0.07 0 0 6.13 1.05 0 0 -8.47 -1.34 0 -2.32 6.59 -0.08 0 -2.32 -6.59 -1.33 0zm11.78 3.42l0 -3.42 -1.1 0 0 8.47 2.72 0c1.62,0 2.55,-1.05 2.55,-2.57 0,-1.51 -0.93,-2.48 -2.55,-2.48l-1.62 0zm0 1.07l1.62 0c0.95,0 1.46,0.63 1.46,1.4 0,0.78 -0.51,1.5 -1.46,1.5l-1.62 0 0 -2.9 0 0zm36.54 40.28l2.27 0 0 7.38 1.1 0 0 -7.38 2.27 0 0 -1.1 -5.64 0 0 1.1zm9.48 -1.09l-1.1 0 0 8.47 1.1 0 0 -3.6 1.28 0c0.2,2.32 1.51,3.71 3.25,3.71 1.89,0 3.28,-1.64 3.28,-4.35 0,-2.71 -1.39,-4.35 -3.28,-4.35 -1.79,0 -3.13,1.46 -3.27,3.92l-1.26 0 0 -3.81 0 0.01zm6.72 4.23c0,2.07 -0.94,3.19 -2.19,3.19 -1.25,0 -2.19,-1.12 -2.19,-3.19 0,-2.06 0.94,-3.19 2.19,-3.19 1.25,0 2.19,1.13 2.19,3.19zm3.78 -4.23l0 8.47 1.04 0 0 -6.14 0.07 0 2.14 6.13 0.87 0 2.15 -6.12 0.07 0 0 6.13 1.04 0 0 -8.47 -1.33 0 -2.32 6.59 -0.09 0 -2.31 -6.59 -1.33 0zm10.66 8.47l4.61 0 0 -1.1 -3.51 0 0 -2.6 3.23 0 0 -1.09 -3.23 0 0 -2.59 3.47 0 0 -1.1 -4.57 0 0 8.48zm7.54 0l1.1 0 0 -3.7 3.63 0 0 3.7 1.1 0 0 -8.47 -1.1 0 0 3.68 -3.63 0 0 -3.68 -1.1 0 0 8.47 0 0zm10.04 -5.06l0 -3.41 -1.11 0 0 8.47 2.73 0c1.62,0 2.55,-1.05 2.55,-2.57 0,-1.51 -0.93,-2.49 -2.55,-2.49l-1.62 0zm0 1.08l1.62 0c0.94,0 1.46,0.63 1.46,1.39 0,0.79 -0.52,1.51 -1.46,1.51l-1.62 0 0 -2.9 0 0zm50.9 25.38c0,-2.71 -1.4,-4.35 -3.28,-4.35 -1.89,0 -3.28,1.64 -3.28,4.35 0,2.7 1.39,4.35 3.28,4.35 1.88,0 3.28,-1.64 3.28,-4.35zm-1.09 0c0,2.06 -0.94,3.19 -2.19,3.19 -1.26,0 -2.19,-1.13 -2.19,-3.19 0,-2.07 0.94,-3.19 2.19,-3.19 1.25,0 2.19,1.12 2.19,3.19zm3.96 -4.24l0 8.48 1.04 0 0 -6.14 0.07 0 2.15 6.12 0.87 0 2.14 -6.12 0.07 0 0 6.14 1.05 0 0 -8.48 -1.34 0 -2.32 6.59 -0.08 0 -2.32 -6.59 -1.33 0zm16.72 2.76c-0.25,-1.81 -1.47,-2.87 -3.01,-2.87 -1.89,0 -3.28,1.64 -3.28,4.35 0,2.71 1.39,4.35 3.28,4.35 1.6,0 2.77,-1.16 3.01,-2.84l-1.11 0c-0.19,1.08 -0.97,1.68 -1.89,1.68 -1.25,0 -2.2,-1.12 -2.2,-3.19 0,-2.06 0.94,-3.19 2.2,-3.19 0.92,0 1.7,0.61 1.88,1.71l1.12 0zm7.12 5.72l1.35 0 -3.01 -4.65 3.02 -3.83 -1.36 0 -2.83 3.58 -0.38 0 0 -3.58 -1.1 0 0 8.48 1.1 0 0 -3.8 0.75 0 2.46 3.8 0 0zm81.32 -92.07l1.34 0 -3 -4.64 3.02 -3.84 -1.36 0.01 -2.83 3.57 -0.38 0 0 -3.58 -1.1 0.01 0 8.47 1.1 0 0 -3.8 0.75 0 2.46 3.8zm3.96 0l1.09 0 0 -2.98 1.5 0c1.69,0 2.52,-1.19 2.52,-2.75 0,-1.56 -0.83,-2.74 -2.52,-2.74l-2.59 0 0 8.47 0 0zm1.09 -4.06l0 -3.32 1.38 0c1.09,0 1.53,0.69 1.53,1.65 0,0.96 -0.44,1.66 -1.51,1.66l-1.4 0.01zm6.65 4.06l0.67 -2.24 2.85 0 0.66 2.24 1.16 0 -2.62 -8.48 -1.26 0.01 -2.62 8.47 1.16 0zm0.99 -3.32l1.07 -3.62 0.06 0 1.08 3.62 -2.21 0 0 0zm12.61 -2.4c-0.25,-1.81 -1.47,-2.87 -3,-2.87 -1.89,0 -3.28,1.64 -3.28,4.35 0,2.71 1.39,4.36 3.28,4.36 1.6,0 2.77,-1.17 3,-2.85l-1.11 0c-0.19,1.08 -0.97,1.68 -1.89,1.68 -1.25,0 -2.19,-1.11 -2.19,-3.19 0,-2.06 0.94,-3.18 2.2,-3.18 0.92,0 1.7,0.6 1.89,1.7l1.1 0zm2.82 5.72l1.1 0 0 -3.7 3.63 0 0 3.7 1.1 0 0 -8.48 -1.1 0.01 0 3.68 -3.63 0 0 -3.68 -1.1 0 0 8.47 0 0zm15.25 -4.24c0,-2.71 -1.39,-4.35 -3.27,-4.35 -1.9,0 -3.29,1.64 -3.29,4.35 0,2.71 1.4,4.36 3.29,4.36 1.88,0 3.27,-1.65 3.27,-4.36zm-1.08 0c0,2.07 -0.94,3.19 -2.19,3.19 -1.26,0 -2.19,-1.12 -2.19,-3.19 0,-2.06 0.93,-3.18 2.19,-3.18 1.25,0 2.19,1.12 2.19,3.18zm8.81 4.24l0 -8.48 -2.59 0.01c-1.69,0 -2.53,1.09 -2.53,2.65 0,1.14 0.45,2 1.34,2.39l-1.61 3.43 1.25 0 1.48 -3.21 1.56 0 0 3.21 1.1 0zm-1.1 -4.31l-1.39 0c-1.07,0 -1.52,-0.55 -1.52,-1.51 0,-0.96 0.45,-1.56 1.53,-1.56l1.38 0 0 3.07 0 0zm4.2 4.31l1.1 0 0 -2.98 1.49 0c1.69,0 2.52,-1.19 2.52,-2.75 0,-1.56 -0.83,-2.74 -2.52,-2.74l-2.59 0 0 8.47 0 0zm1.1 -4.06l0 -3.32 1.38 0c1.09,0 1.53,0.69 1.53,1.65 0,0.96 -0.44,1.66 -1.52,1.66l-1.39 0.01zm12.85 -1.66c-0.25,-1.81 -1.47,-2.87 -3.01,-2.87 -1.88,0 -3.27,1.64 -3.27,4.35 0,2.71 1.38,4.36 3.27,4.36 1.6,0 2.77,-1.17 3.01,-2.85l-1.11 0c-0.19,1.08 -0.97,1.68 -1.89,1.68 -1.25,0 -2.19,-1.11 -2.19,-3.19 0,-2.06 0.94,-3.18 2.19,-3.18 0.93,0 1.71,0.6 1.89,1.7l1.11 0zm7.13 5.72l1.34 0 -3.01 -4.64 3.02 -3.84 -1.36 0.01 -2.83 3.57 -0.38 0 0 -3.58 -1.1 0.01 0 8.47 1.1 0 0 -3.8 0.76 0 2.46 3.8zm-4.69 66.55l0.49 0c1.14,0 1.52,-0.74 1.84,-1.59l2.52 -7.01 -1.16 0 -1.69 4.9 -1.92 -4.9 -1.16 0 2.56 6.37 -0.1 0.3c-0.16,0.44 -0.4,0.8 -0.95,0.8l-0.43 0 0 1.12 0 0.01zm6.83 -0.12l0.32 0c1.65,0 2.05,-1.43 2.15,-4.15l0.11 -3.24 2.49 0 0 7.39 1.08 0 0 -8.47 -4.6 0 -0.13 3.98c-0.08,2.45 -0.33,3.35 -1.2,3.37l-0.22 0.01 0 1.11 0 0zm9.87 0l0.66 -2.24 2.85 0 0.66 2.24 1.17 0 -2.62 -8.48 -1.27 0 -2.62 8.48 1.17 0zm0.98 -3.32l1.08 -3.62 0.05 0 1.08 3.62 -2.21 0zm6.91 3.32l1.1 0 0 -3.7 3.63 0 0 3.7 1.1 0 0 -8.47 -1.1 0 0 3.68 -3.63 0 0 -3.68 -1.1 0 0 8.47 0 0zm12.06 -4.77l-3.22 0 0 1.07 3.22 0 0 -1.07zm2.89 4.89l0.5 0c1.13,0 1.51,-0.74 1.83,-1.59l2.52 -7.01 -1.15 0 -1.7 4.9 -1.91 -4.9 -1.17 0 2.56 6.37 -0.1 0.3c-0.16,0.44 -0.4,0.8 -0.94,0.8l-0.44 0 0 1.12 0 0.01zm6.84 1.93l1.05 0 0 -2.05 4.89 0 0 2.04 1.05 0 0 -3.13 -0.83 0.01 0 -7.4 -4.49 0 -0.17 3.58c-0.11,2.36 -0.54,3.34 -1.02,3.82l-0.48 0 0 3.13zm1.77 -3.14c0.42,-0.77 0.7,-2.02 0.79,-3.81l0.11 -2.48 2.44 0 0 6.29 -3.34 0.01 0 -0.01zm7.69 -1.6c0.14,1.61 1.04,2.81 2.8,2.81 1.76,0 2.88,-1.53 2.88,-3.91l0 -0.88c0,-2.37 -1.14,-3.92 -2.94,-3.92 -1.71,0 -2.6,1.21 -2.74,2.85l1.12 0c0.11,-1.1 0.55,-1.75 1.62,-1.75 1.17,0 1.82,1.1 1.83,2.81l-2.69 0 0 1.09 2.68 0c-0.04,1.49 -0.6,2.62 -1.76,2.62 -1.09,0 -1.56,-0.6 -1.68,-1.72l-1.12 0 0 0z"/>
   <path class="fil2" d="M999.31 459.34c0,2.24 -1.57,4.07 -3.5,4.07 -1.93,0 -3.49,-1.83 -3.49,-4.07 0,-2.25 1.56,-4.08 3.49,-4.08 1.93,0 3.5,1.83 3.5,4.08z"/>
   <path class="fil0" d="M995.81 462.24c1.38,0 2.5,-1.3 2.5,-2.9 0,-1.61 -1.12,-2.91 -2.5,-2.91 -1.37,0 -2.49,1.3 -2.49,2.91 0,1.6 1.12,2.9 2.49,2.9zm0 1.17c1.93,0 3.5,-1.83 3.5,-4.07 0,-2.25 -1.57,-4.08 -3.5,-4.08 -1.93,0 -3.49,1.83 -3.49,4.08 0,2.24 1.56,4.07 3.49,4.07z"/>
   <path class="fil3" d="M913.46 553.92c0,2.25 -1.56,4.07 -3.49,4.07 -1.93,0 -3.5,-1.82 -3.5,-4.07 0,-2.25 1.57,-4.07 3.5,-4.07 1.93,0 3.49,1.82 3.49,4.07z"/>
   <path class="fil0" d="M909.97 556.83c1.38,0 2.49,-1.3 2.49,-2.91 0,-1.6 -1.11,-2.91 -2.49,-2.91 -1.38,0 -2.5,1.31 -2.5,2.91 0,1.61 1.12,2.91 2.5,2.91zm0 1.16c1.93,0 3.49,-1.82 3.49,-4.07 0,-2.25 -1.56,-4.07 -3.49,-4.07 -1.93,0 -3.5,1.82 -3.5,4.07 0,2.25 1.57,4.07 3.5,4.07z"/>
   <path class="fil4" d="M1107.7 601.81c0,2.25 -1.57,4.07 -3.5,4.07 -1.93,0 -3.5,-1.82 -3.5,-4.07 0,-2.24 1.57,-4.07 3.5,-4.07 1.93,0 3.5,1.82 3.5,4.07z"/>
   <path class="fil0" d="M1104.2 604.72c1.38,0 2.49,-1.3 2.49,-2.91 0,-1.6 -1.11,-2.9 -2.49,-2.9 -1.38,0 -2.49,1.3 -2.49,2.9 0,1.61 1.11,2.91 2.49,2.91zm0 1.16c1.93,0 3.5,-1.82 3.5,-4.07 0,-2.24 -1.57,-4.07 -3.5,-4.07 -1.93,0 -3.5,1.82 -3.5,4.07 0,2.25 1.57,4.07 3.5,4.07z"/>
   <path class="fil5" d="M1140.04 627.26c0,2.24 -1.56,4.07 -3.49,4.07 -1.94,0 -3.5,-1.82 -3.5,-4.07 0,-2.25 1.56,-4.07 3.5,-4.07 1.93,0 3.49,1.82 3.49,4.07z"/>
   <path class="fil0" d="M1136.55 630.16c1.37,0 2.49,-1.3 2.49,-2.9 0,-1.61 -1.11,-2.91 -2.49,-2.91 -1.38,0 -2.5,1.3 -2.5,2.91 0,1.6 1.12,2.9 2.49,2.9l0.01 0zm0 1.17c1.93,0 3.49,-1.82 3.49,-4.07 0,-2.25 -1.56,-4.07 -3.49,-4.07 -1.94,0 -3.5,1.82 -3.5,4.07 0,2.24 1.56,4.07 3.5,4.07l0 0z"/>
   <path class="fil6" d="M1228.33 568.23c0,2.25 -1.57,4.07 -3.5,4.07 -1.93,0 -3.5,-1.82 -3.5,-4.07 0,-2.25 1.57,-4.07 3.5,-4.07 1.93,0 3.5,1.82 3.5,4.07z"/>
   <path class="fil0" d="M1224.83 571.14c1.38,0 2.5,-1.3 2.5,-2.91 0,-1.6 -1.12,-2.9 -2.5,-2.9 -1.38,0 -2.49,1.3 -2.49,2.9 0,1.61 1.11,2.91 2.49,2.91l0 0zm0 1.16c1.93,0 3.5,-1.82 3.5,-4.07 0,-2.25 -1.57,-4.07 -3.5,-4.07 -1.93,0 -3.5,1.82 -3.5,4.07 0,2.25 1.57,4.07 3.5,4.07z"/>
   <path class="fil7" d="M1306.13 607.92c0,2.25 -1.57,4.07 -3.5,4.07 -1.94,0 -3.5,-1.82 -3.5,-4.07 0,-2.25 1.56,-4.07 3.5,-4.07 1.93,0 3.5,1.82 3.5,4.07l0 0z"/>
   <path class="fil0" d="M1302.63 610.82c1.37,0 2.49,-1.3 2.49,-2.9 0,-1.61 -1.12,-2.91 -2.49,-2.91 -1.38,0 -2.5,1.3 -2.5,2.91 0,1.6 1.12,2.9 2.5,2.9zm0 1.17c1.93,0 3.5,-1.82 3.5,-4.07 0,-2.25 -1.57,-4.07 -3.5,-4.07 -1.94,0 -3.5,1.82 -3.5,4.07 0,2.25 1.56,4.07 3.5,4.07l0 0z"/>
   <path class="fil8" d="M1408.39 635.4c0,2.25 -1.56,4.07 -3.5,4.07 -1.93,0 -3.49,-1.82 -3.49,-4.07 0,-2.25 1.56,-4.07 3.49,-4.07 1.94,0 3.5,1.82 3.5,4.07z"/>
   <path class="fil0" d="M1404.9 638.3c1.37,0 2.49,-1.3 2.49,-2.9 0,-1.61 -1.11,-2.91 -2.49,-2.91 -1.38,0 -2.5,1.3 -2.5,2.91 0,1.6 1.12,2.9 2.5,2.9l0 0zm0 1.17c1.93,0 3.49,-1.82 3.49,-4.07 0,-2.25 -1.56,-4.07 -3.49,-4.07 -1.93,0 -3.5,1.82 -3.5,4.07 0,2.25 1.57,4.07 3.5,4.07z"/>
   <path class="fil9" d="M1441.61 575.36c0,2.24 -1.57,4.07 -3.5,4.07 -1.93,0 -3.5,-1.82 -3.5,-4.07 0,-2.25 1.57,-4.07 3.5,-4.07 1.93,0 3.5,1.82 3.5,4.07z"/>
   <path class="fil0" d="M1438.11 578.26c1.38,0 2.5,-1.3 2.5,-2.9 0,-1.61 -1.12,-2.91 -2.5,-2.91 -1.38,0 -2.49,1.3 -2.49,2.91 0,1.6 1.11,2.9 2.49,2.9zm0 1.17c1.93,0 3.5,-1.82 3.5,-4.07 0,-2.25 -1.57,-4.07 -3.5,-4.07 -1.93,0 -3.5,1.82 -3.5,4.07 0,2.24 1.57,4.07 3.5,4.07l0 0z"/>
   <path class="fil10" d="M1498.42 621.15c0,2.25 -1.56,4.07 -3.49,4.07 -1.93,0 -3.5,-1.82 -3.5,-4.07 0,-2.24 1.57,-4.07 3.5,-4.07 1.93,0 3.49,1.82 3.49,4.07z"/>
   <path class="fil0" d="M1494.93 624.06c1.38,0 2.49,-1.3 2.49,-2.91 0,-1.6 -1.11,-2.9 -2.49,-2.9 -1.38,0 -2.5,1.3 -2.5,2.9 0,1.61 1.12,2.91 2.5,2.91zm0 1.16c1.93,0 3.49,-1.82 3.49,-4.07 0,-2.24 -1.56,-4.07 -3.49,-4.07 -1.93,0 -3.5,1.82 -3.5,4.07 0,2.25 1.57,4.07 3.5,4.07z"/>
   <path class="fil11" d="M1604.2 605.88c0,2.25 -1.57,4.07 -3.5,4.07 -1.93,0 -3.5,-1.82 -3.5,-4.07 0,-2.25 1.57,-4.07 3.5,-4.07 1.93,0 3.5,1.82 3.5,4.07z"/>
   <path class="fil0" d="M1600.7 608.79c1.38,0 2.49,-1.3 2.49,-2.91 0,-1.6 -1.11,-2.9 -2.49,-2.9 -1.38,0 -2.5,1.3 -2.5,2.9 0,1.61 1.12,2.91 2.5,2.91zm0 1.17c1.93,0 3.5,-1.83 3.5,-4.08 0,-2.24 -1.57,-4.07 -3.5,-4.07 -1.93,0 -3.5,1.82 -3.5,4.07 0,2.25 1.57,4.07 3.5,4.07l0 0.01z"/>
   <path class="fil12" d="M1739.26 550.93c0,2.25 -1.56,4.07 -3.5,4.07 -1.93,0 -3.49,-1.82 -3.49,-4.07 0,-2.25 1.56,-4.07 3.49,-4.07 1.94,0 3.5,1.82 3.5,4.07z"/>
   <path class="fil0" d="M1735.76 553.83c1.38,0 2.5,-1.3 2.5,-2.9 0,-1.6 -1.12,-2.9 -2.5,-2.9 -1.37,0 -2.49,1.3 -2.49,2.9 0,1.6 1.12,2.9 2.49,2.9zm0 1.17c1.94,0 3.5,-1.83 3.5,-4.07 0,-2.25 -1.56,-4.07 -3.5,-4.07 -1.93,0 -3.49,1.82 -3.49,4.07 0,2.24 1.56,4.07 3.49,4.07l0 0z"/>
   <path class="fil13" d="M1802.36 583.06c0,2.24 -1.56,4.06 -3.49,4.06 -1.94,0 -3.5,-1.82 -3.5,-4.06 0,-2.25 1.56,-4.08 3.5,-4.08 1.93,0 3.49,1.83 3.49,4.08z"/>
   <path class="fil0" d="M1798.87 585.96c1.37,0 2.49,-1.3 2.49,-2.9 0,-1.61 -1.12,-2.91 -2.49,-2.91 -1.38,0 -2.5,1.3 -2.5,2.91 0,1.6 1.12,2.9 2.5,2.9l0 0zm0 1.16c1.93,0 3.49,-1.82 3.49,-4.06 0,-2.25 -1.56,-4.08 -3.49,-4.08 -1.94,0 -3.5,1.83 -3.5,4.08 0,2.24 1.56,4.06 3.5,4.06z"/>
  </g>
 </g>
</svg>
